<svg width="439" height="415" viewBox="0 0 439 415" fill="none" xmlns="http://www.w3.org/2000/svg">
<g opacity="0.03">
<path fill-rule="evenodd" clip-rule="evenodd" d="M239.582 263.439V263.509C231.996 263.509 225.824 256.909 225.824 248.812C225.824 243.559 228.407 238.758 232.275 236.016C225.65 235.057 219.579 232.843 214.372 229.567C210.686 235.334 208.421 242.098 208.421 248.812C208.421 266.144 223.357 280.238 239.582 280.238V280.176C244.473 280.176 248.462 284.438 248.462 289.682C248.462 293.851 245.93 298.387 242.42 300.069C245.848 300.9 248.985 302.837 251.638 305.79C252.727 306.995 253.677 308.367 254.511 309.792C260.326 305.291 264.099 298.134 264.099 289.682C264.099 275.207 253.109 263.439 239.582 263.439Z" fill="#008BD0"/>
<path fill-rule="evenodd" clip-rule="evenodd" d="M238.273 213.825C228.012 213.825 214.042 207.949 214.042 196.971C214.042 196.743 214.042 196.536 214.057 196.31C209.643 194.221 206.33 190.169 205.255 185.236C205.325 185.088 205.416 184.96 205.476 184.815C208.314 188.434 212.873 190.811 218.063 190.811C224.514 190.811 230.038 187.172 232.425 181.974C230.872 175.464 224.652 170.599 217.187 170.599C213 170.599 209.226 172.15 206.41 174.633C205.303 175.582 203.966 176.947 203.577 177.607C200.299 183.229 198.387 189.868 198.387 196.971C198.387 217.183 214.693 232.976 238.272 233.619C245.859 233.619 252.021 240.694 252.021 248.812C252.021 255.034 248.381 260.364 243.264 262.495C249.599 263.4 255.239 266.728 259.326 271.568C265.435 265.836 269.426 257.757 269.426 248.812C269.426 231.465 254.485 213.825 238.272 213.825H238.273ZM218.84 178.631C220.775 178.631 222.548 179.088 224.015 179.839C223.915 179.933 223.779 180.002 223.669 180.095C223.236 180.053 222.789 180.01 222.347 180.01C220.539 180.01 218.918 180.447 217.532 181.13C216.549 180.631 215.655 180.043 214.846 179.347C216.047 178.889 217.394 178.631 218.84 178.631Z" fill="#E40044"/>
<path fill-rule="evenodd" clip-rule="evenodd" d="M238.273 300.792V300.744C233.375 300.744 229.391 294.92 229.391 289.682C229.391 286.709 230.7 284.102 232.682 282.356C227.293 281.064 222.33 278.331 218.216 274.646C215.401 278.901 213.749 284.079 213.749 289.682C213.749 304.147 224.749 314.877 238.273 314.877C238.273 314.877 239.349 315.042 239.826 315.26C244.91 316.693 248.66 322.656 248.66 328.543C248.66 334.77 244.448 339.897 238.929 340.964C238.922 340.963 238.911 340.957 238.911 340.961L238.914 341.218C238.914 341.222 238.925 341.217 238.929 341.217C249.408 341.6 255.267 331.001 255.631 321.07C255.965 312.407 249.115 300.792 238.272 300.792H238.273Z" fill="#E40044"/>
<path fill-rule="evenodd" clip-rule="evenodd" d="M274.268 177.607C273.886 176.947 272.555 175.582 271.433 174.633C268.629 172.15 264.826 170.599 260.666 170.599C253.193 170.599 246.963 175.464 245.433 181.974C247.802 187.172 253.328 190.811 259.792 190.811C264.982 190.811 269.533 188.434 272.367 184.815C272.437 184.96 272.52 185.088 272.588 185.236C271.513 190.169 268.212 194.221 263.799 196.31C263.799 196.536 263.81 196.743 263.81 196.971C263.81 206.257 253.829 211.872 244.545 213.395C251.604 215.177 258.336 219.911 263.347 226.534C273.393 219.922 279.457 209.273 279.457 196.971C279.457 189.868 277.563 183.229 274.269 177.607H274.268ZM260.314 181.13C258.932 180.447 257.302 180.01 255.496 180.01C255.059 180.01 254.604 180.053 254.175 180.095C254.071 180.002 253.946 179.933 253.84 179.839C255.31 179.088 257.081 178.631 259.003 178.631C260.439 178.631 261.796 178.889 262.997 179.347C262.188 180.043 261.299 180.631 260.314 181.13Z" fill="#008BD0"/>
<path fill-rule="evenodd" clip-rule="evenodd" d="M350.59 113.275C350.59 112.056 350.472 110.862 350.264 109.703L273.746 113.638C269.533 113.692 265.039 115.524 260.721 118.419C261.806 125.85 257.882 134.715 250.193 140.562C248.342 141.985 246.392 143.107 244.425 143.952C244.414 145.639 244.285 156.126 244.262 158.787C251.396 158.472 257.942 155.713 263.165 151.22L273.185 166.104C276.795 171.455 283.759 172.677 288.77 168.813C289.373 168.364 289.89 167.849 290.377 167.299L282.203 156.325L296.19 163.969C301.694 166.956 308.413 164.628 311.212 158.748C311.55 158.062 311.802 157.346 312.001 156.617L294.374 148.114L319.009 152.308C326.475 153.562 333.483 148.126 334.676 140.137C334.818 139.187 334.862 138.265 334.828 137.342L289.486 131.995H333.067C342.74 131.995 350.59 123.616 350.59 113.275Z" fill="#E40044"/>
<path fill-rule="evenodd" clip-rule="evenodd" d="M233.186 143.94C231.214 143.096 229.28 141.972 227.432 140.562C219.762 134.715 215.824 125.85 216.921 118.419C212.603 115.524 208.112 113.692 203.884 113.638L127.368 109.703C127.17 110.862 127.042 112.056 127.042 113.275C127.042 123.616 134.894 131.995 144.57 131.995H188.161L142.807 137.342C142.77 138.265 142.814 139.187 142.955 140.137C144.148 148.126 151.169 153.562 158.627 152.308L183.26 148.114L165.641 156.617C165.829 157.346 166.083 158.062 166.42 158.748C169.223 164.628 175.94 166.956 181.442 163.969L195.428 156.325L187.267 167.299C187.742 167.849 188.276 168.364 188.864 168.813C193.871 172.677 200.849 171.455 204.456 166.104L214.459 151.22C219.682 155.705 226.226 158.457 233.359 158.787C233.322 156.148 233.206 145.639 233.186 143.94Z" fill="#E40044"/>
<path fill-rule="evenodd" clip-rule="evenodd" d="M241.69 236.494L239.374 236.525C237.894 236.525 236.505 236.862 235.213 237.438C235.39 245.452 235.585 253.472 235.784 261.491C236.605 261.401 237.439 261.352 238.273 261.352H239.522C240.471 261.243 241.365 260.972 242.232 260.642C242.438 252.631 242.629 244.615 242.815 236.613C242.684 236.547 242.581 236.471 242.453 236.426C242.2 236.437 241.956 236.483 241.69 236.495V236.494Z" fill="#008BD0"/>
<path fill-rule="evenodd" clip-rule="evenodd" d="M240.217 298.803C240.541 298.844 240.856 298.91 241.169 298.964C241.333 293.79 241.471 288.615 241.616 283.436C241.305 283.339 241.016 283.261 240.695 283.211H239.73C238.597 283.211 237.485 283.101 236.376 282.972C236.525 288.12 236.665 293.267 236.814 298.418C237.288 298.558 237.773 298.651 238.273 298.651L240.217 298.803Z" fill="#008BD0"/>
<path fill-rule="evenodd" clip-rule="evenodd" d="M240.564 317.79C240.323 317.802 240.117 317.829 239.883 317.838C239.499 317.901 239.072 317.997 238.936 318.057L238.819 318.119L238.668 318.153C238.273 318.261 237.869 318.446 237.474 318.642C237.705 325.421 237.94 332.22 238.178 338.999C238.746 338.926 239.313 338.794 239.846 338.608C240.105 331.671 240.323 324.735 240.564 317.791V317.79Z" fill="#008BD0"/>
<path fill-rule="evenodd" clip-rule="evenodd" d="M238.364 344.19C238.57 349.954 238.784 355.723 239.007 361.499C239.225 355.751 239.431 350.003 239.637 344.248C239.213 344.248 238.796 344.213 238.364 344.19Z" fill="#008BD0"/>
<path fill-rule="evenodd" clip-rule="evenodd" d="M237.288 133.821C235.959 133.821 234.681 133.58 233.505 133.139C233.731 159.206 234.068 185.317 234.57 211.494C235.819 211.654 237.032 211.732 238.178 211.732C239.883 211.732 241.574 211.954 243.229 212.308C243.75 185.243 244.124 158.229 244.342 131.267C242.388 132.876 239.941 133.821 237.288 133.821Z" fill="#008BD0"/>
<path fill-rule="evenodd" clip-rule="evenodd" d="M238.921 108.198C232.446 108.198 227.188 113.813 227.188 120.752C227.188 127.688 232.446 133.299 238.921 133.299C245.407 133.299 250.652 127.688 250.652 120.752C250.652 113.813 245.407 108.198 238.921 108.198Z" fill="#008BD0"/>
<path fill-rule="evenodd" clip-rule="evenodd" d="M238.929 340.964C238.922 340.963 238.918 340.962 238.911 340.961C233.388 339.887 229.191 334.763 229.191 328.543C229.191 324.323 231.139 320.083 234.1 317.479C230.249 316.842 226.703 315.385 223.635 313.268C222.626 315.89 222.118 318.59 222.211 321.07C222.58 331.014 228.433 341.584 238.914 341.218C238.917 341.218 238.925 341.217 238.928 341.217L238.929 340.964Z" fill="#008BD0"/>
<path fill-rule="evenodd" clip-rule="evenodd" d="M304.421 1.28095C199.729 -10.7597 73.5532 63.4182 21.9588 167.616C-29.8805 272.31 13.2002 367.653 118.184 380.569C134.165 382.534 150.661 382.469 167.324 380.589C166.831 380.531 166.335 380.486 165.843 380.425C60.8608 367.508 17.7801 272.165 69.6202 167.473C113.566 78.7213 211.619 11.7474 304.421 1.27979V1.28095Z" fill="#008BD0"/>
<path fill-rule="evenodd" clip-rule="evenodd" d="M134.579 413.719C239.271 425.76 365.447 351.582 417.041 247.384C468.88 142.69 425.8 47.3471 320.816 34.431C304.835 32.4657 288.338 32.5309 271.676 34.4116C272.169 34.4691 272.665 34.5145 273.157 34.575C378.139 47.4918 421.22 142.835 369.38 247.527C325.434 336.279 227.381 403.253 134.579 413.72V413.719Z" fill="#E40044"/>
</g>
</svg>
