<svg width="464" height="107" viewBox="0 0 464 107" fill="none" xmlns="http://www.w3.org/2000/svg">
<path fill-rule="evenodd" clip-rule="evenodd" d="M149.861 29.4061C148.807 32.3388 148.276 36.5086 148.276 41.9157C148.276 43.3636 148.313 45.398 148.386 48.0192C148.459 50.6401 148.496 52.4639 148.496 53.481C148.496 58.4757 148.422 61.7199 148.285 63.2228C147.891 67.017 146.938 69.9038 145.417 71.8926C143.492 74.3945 140.569 75.6499 136.646 75.6499C135.391 75.6499 134.364 75.5034 133.539 75.2193C137.838 73.0015 140.569 69.9404 141.732 66.0456C142.392 63.8462 142.722 59.603 142.722 53.3254V33.5302C140.523 33.5852 137.847 33.9058 134.694 34.4923L136.555 29.4061H149.861ZM165.633 67.237H157.248C158.109 63.9012 158.54 60.666 158.54 57.5136V40.5868C158.54 36.3345 158.109 32.6138 157.248 29.4061H165.633C164.753 32.6138 164.314 36.3345 164.314 40.5868V57.2386C164.314 60.5744 164.753 63.9012 165.633 67.237V67.237ZM198.616 59.8139L195.711 67.237H170.775C176.64 56.5787 182.404 45.343 188.059 33.5302H185.749C182.688 33.5302 180.196 33.7227 178.262 34.1167C175.916 34.5932 173.542 35.5006 171.15 36.8295L174.129 29.4061H196.682L179.792 63.1129H182.212C188.957 63.1129 194.428 62.0133 198.616 59.8139ZM228.877 59.8139L225.972 67.237H201.035C206.901 56.5787 212.665 45.343 218.32 33.5302H216.01C212.949 33.5302 210.457 33.7227 208.523 34.1167C206.177 34.5932 203.803 35.5006 201.411 36.8295L204.39 29.4061H226.943L210.053 63.1129H212.473C219.218 63.1129 224.689 62.0133 228.877 59.8139V59.8139ZM268.779 67.237H259.624C259.422 65.2301 258.955 63.2228 258.194 61.2343C257.947 60.5469 257.095 58.6131 255.646 55.4148H242.056C240.928 58.3932 240.232 60.327 239.966 61.2068C239.269 63.4153 238.894 65.4225 238.839 67.237H229.519C231.379 65.0926 233.798 60.9044 236.768 54.6908L249.149 28.8562L261.851 55.5523C263.977 60.0795 266.286 63.9743 268.779 67.237V67.237ZM253.529 50.741L248.856 39.4869L244.072 50.741H253.529ZM302.587 67.237H293.129C292.341 64.5886 291.369 62.1964 290.206 60.0611C289.866 59.4196 288.464 57.1193 285.999 53.1604L281.976 59.9789C280.601 62.5448 279.667 64.9642 279.163 67.237H269.595C272.005 64.6892 274.406 61.6468 276.798 58.1001C278.035 56.2947 280.125 52.9679 283.066 48.1292C278.026 39.8719 273.829 33.6308 270.475 29.4061H279.437C280.51 32.4669 282.81 36.9485 286.32 42.8412C288.098 39.7435 289.317 37.5441 289.976 36.2611C291.177 33.8967 292.158 31.6055 292.909 29.4061H301.432C297.94 34.0617 293.871 40.1653 289.225 47.7074C292.258 52.7205 294.348 56.0931 295.494 57.8342C297.83 61.3809 300.195 64.5152 302.587 67.237V67.237ZM317.58 49.9896L315.271 54.9199H304.319L303.943 53.811L305.932 49.1463H317.122L317.58 49.9896ZM341.325 56.7987C341.325 60.3179 339.969 63.0854 337.247 65.1016C334.791 66.8886 331.748 67.7869 328.119 67.7869C325.773 67.7869 323.418 67.2004 321.035 66.0272V58.6866C322.217 60.1895 323.289 61.2618 324.243 61.9033C325.498 62.7463 326.927 63.1679 328.54 63.1679C330.318 63.1679 331.849 62.6273 333.123 61.5549C334.488 60.437 335.166 59.0074 335.166 57.2661C335.166 55.4698 333.966 53.6369 331.556 51.7765L324.811 46.736C322.4 44.4816 321.2 41.9797 321.2 39.2304C321.2 35.9952 322.41 33.4202 324.829 31.5139C327.056 29.7451 329.824 28.8562 333.141 28.8562C335.368 28.8562 337.595 29.3145 339.84 30.231V37.0491C338.347 35.6837 337.302 34.8222 336.706 34.4648C335.588 33.8052 334.287 33.4752 332.793 33.4752C331.244 33.4752 329.961 33.9242 328.953 34.8132C327.89 35.748 327.358 36.9576 327.358 38.4605C327.358 40.1743 328.559 41.9522 330.969 43.7942L337.714 48.9172C340.124 51.2541 341.325 53.8844 341.325 56.7987V56.7987ZM377.937 67.237H369.551C370.413 64.2311 370.844 61.7383 370.844 59.7496V50.3011H354.568V55.1308C354.568 59.3371 355.007 63.3697 355.887 67.237H347.502C348.363 64.2677 348.794 60.5744 348.794 56.1663V41.2558C348.794 36.7376 348.363 32.7878 347.502 29.4061H355.887C355.007 32.8519 354.568 35.9312 354.568 38.6255V45.6271H370.844V40.6968C370.844 36.9026 370.413 33.1453 369.551 29.4061H377.937C377.057 32.6503 376.617 36.2886 376.617 40.3118V54.37C376.617 59.493 377.057 63.7821 377.937 67.237V67.237ZM393.507 67.237H385.122C385.983 63.9012 386.414 60.666 386.414 57.5136V40.5868C386.414 36.3345 385.983 32.6138 385.122 29.4061H393.507C392.627 32.6138 392.188 36.3345 392.188 40.5868V57.2386C392.188 60.5744 392.627 63.9012 393.507 67.237V67.237ZM421.23 29.4061L418.316 35.4547C415.768 34.1533 413.055 33.5027 410.168 33.5027C409.783 33.5027 408.876 33.5302 407.428 33.5852V45.847H419.91L416.446 51.8956C414.769 51.1535 413.312 50.6492 412.075 50.3836C411.112 50.2002 409.563 50.0536 407.428 49.9712V56.3862C407.428 60.4919 407.868 64.1027 408.748 67.237H400.362C401.224 64.0112 401.654 60.2629 401.654 55.9832V39.7528C401.654 35.6287 401.224 32.1829 400.362 29.4061H421.23ZM463.561 48.3767C463.561 53.8844 461.737 58.5032 458.08 62.2148C454.433 65.9265 449.85 67.7869 444.343 67.7869C438.615 67.7869 433.932 65.9356 430.303 62.2423C426.665 58.5491 424.85 53.8294 424.85 48.0833C424.85 42.4931 426.784 37.874 430.651 34.2267C434.463 30.6434 439.174 28.8562 444.792 28.8562C450.327 28.8562 454.854 30.735 458.382 34.4923C461.838 38.1856 463.561 42.8046 463.561 48.3767ZM457.347 49.4762C457.347 45.3524 456.156 41.7323 453.773 38.6073C451.152 35.1888 447.834 33.4752 443.811 33.4752C439.99 33.4752 436.883 34.7857 434.482 37.4066C432.163 39.9359 431.008 43.1252 431.008 46.9559C431.008 51.236 432.209 54.9383 434.61 58.0542C437.231 61.4634 440.64 63.1679 444.837 63.1679C448.586 63.1679 451.647 61.7933 454.011 59.044C456.238 56.4412 457.347 53.252 457.347 49.4762V49.4762Z" fill="#008BD0"/>
<path fill-rule="evenodd" clip-rule="evenodd" d="M204.559 90.6838C204.559 93.1445 203.766 95.1166 202.174 96.5957C200.631 98.0306 198.623 98.7639 196.15 98.7959L191.886 98.82C192.27 97.5413 192.463 95.8459 192.463 93.7338V87.7618C192.463 85.834 192.27 84.0062 191.886 82.2748H193.577C200.9 82.2748 204.559 85.0765 204.559 90.6838V90.6838ZM201.866 90.6517C201.866 88.6034 201.225 86.9843 199.942 85.8059C198.707 84.6718 197.056 84.0943 194.988 84.0785V97.0164C199.573 96.6476 201.866 94.5275 201.866 90.6517ZM210.94 98.82H207.273C207.65 97.361 207.838 95.9463 207.838 94.5675V87.1645C207.838 85.305 207.65 83.6776 207.273 82.2748H210.94C210.555 83.6776 210.363 85.305 210.363 87.1645V94.4473C210.363 95.9063 210.555 97.361 210.94 98.82ZM229.582 98.82H225.578C225.489 97.9422 225.285 97.0645 224.952 96.1949C224.844 95.8941 224.471 95.0485 223.838 93.6496H217.894C217.401 94.9522 217.096 95.798 216.98 96.1827C216.676 97.1487 216.511 98.0263 216.487 98.82H212.411C213.225 97.8821 214.283 96.0506 215.581 93.333L220.996 82.0344L226.551 93.7097C227.481 95.6897 228.491 97.3931 229.582 98.82V98.82ZM222.912 91.6056L220.868 86.6838L218.776 91.6056H222.912ZM245.269 90.5715C244.992 91.4253 244.824 92.1708 244.764 92.812C244.724 93.2089 244.704 93.9864 244.704 95.1446C244.704 96.3392 244.788 97.3171 244.952 98.0745C242.932 98.7319 241.016 99.0604 239.201 99.0604C236.636 99.0604 234.572 98.343 233.017 96.9123C231.397 95.4253 230.588 93.4093 230.588 90.864C230.588 88.2428 231.437 86.1106 233.133 84.4631C234.804 82.844 236.948 82.0344 239.57 82.0344C240.852 82.0344 242.251 82.2547 243.766 82.6997V85.5454C242.311 84.5513 240.744 84.0544 239.065 84.0544C237.273 84.0544 235.846 84.7117 234.784 86.0304C233.798 87.257 233.305 88.784 233.305 90.6197C233.305 92.4594 233.754 93.9583 234.656 95.1205C235.654 96.3993 237.049 97.0405 238.84 97.0405C239.75 97.0405 240.864 96.808 242.179 96.3392V94.2109C242.179 92.884 241.986 91.6696 241.602 90.5715H245.269ZM262.588 98.82H259.305C259.009 98.1307 258.351 97.0886 257.329 95.6977L251.273 87.4452V93.5453C251.273 95.7257 251.466 97.4855 251.85 98.82H248.447C248.824 97.361 249.012 95.6056 249.012 93.5496V84.6315L247.004 82.2748H250.864C251.301 83.0523 251.974 84.0705 252.876 85.3331L259.762 94.8762V87.8341C259.762 85.5774 259.57 83.7258 259.185 82.2748H262.588C262.203 83.9583 262.011 85.83 262.011 87.8902L262.023 94.0947C262.023 95.9383 262.211 97.5136 262.588 98.82V98.82ZM282.063 90.5715C282.063 92.9804 281.265 95.0004 279.666 96.6238C278.071 98.2469 276.067 99.0604 273.658 99.0604C271.153 99.0604 269.105 98.2508 267.518 96.6357C265.926 95.0205 265.133 92.9563 265.133 90.4431C265.133 87.9982 265.979 85.9782 267.67 84.3832C269.337 82.8159 271.398 82.0344 273.854 82.0344C276.275 82.0344 278.255 82.8559 279.798 84.4994C281.309 86.1146 282.063 88.1346 282.063 90.5715V90.5715ZM279.345 91.0525C279.345 89.2489 278.824 87.6657 277.782 86.2988C276.636 84.8039 275.185 84.0544 273.426 84.0544C271.754 84.0544 270.396 84.6275 269.345 85.7739C268.331 86.8799 267.826 88.2749 267.826 89.9502C267.826 91.8219 268.351 93.4413 269.401 94.8039C270.548 96.2949 272.039 97.0405 273.875 97.0405C275.514 97.0405 276.852 96.4392 277.886 95.2368C278.86 94.0987 279.345 92.7037 279.345 91.0525V91.0525ZM293.141 94.2548C293.141 95.7941 292.548 97.0045 291.358 97.886C290.283 98.6678 288.953 99.0604 287.365 99.0604C286.34 99.0604 285.31 98.8039 284.267 98.2911V95.0806C284.785 95.7379 285.253 96.2068 285.67 96.4874C286.219 96.8562 286.844 97.0405 287.55 97.0405C288.328 97.0405 288.997 96.804 289.554 96.3352C290.151 95.8459 290.448 95.2209 290.448 94.4592C290.448 93.6737 289.923 92.8721 288.869 92.0586L285.919 89.8541C284.864 88.8682 284.339 87.774 284.339 86.5715C284.339 85.1565 284.868 84.0303 285.927 83.1966C286.901 82.423 288.111 82.0344 289.562 82.0344C290.536 82.0344 291.51 82.2348 292.492 82.6356V85.6174C291.839 85.0204 291.382 84.6437 291.121 84.4872C290.632 84.1987 290.063 84.0544 289.41 84.0544C288.732 84.0544 288.171 84.2508 287.73 84.6394C287.265 85.0485 287.033 85.5774 287.033 86.2348C287.033 86.9843 287.558 87.7618 288.612 88.5674L291.562 90.8079C292.616 91.8301 293.141 92.9804 293.141 94.2548V94.2548ZM307.758 82.2748L306.949 84.9201C306.107 84.5555 305.39 84.3228 304.785 84.2148C304.308 84.1306 303.55 84.0864 302.516 84.0785V93.301C302.516 95.7016 302.704 97.5456 303.081 98.82H299.414C299.799 97.6697 299.991 95.798 299.991 93.2049V84.0785C298.789 84.1547 297.899 84.2307 297.318 84.3069C296.352 84.4433 295.486 84.6477 294.725 84.9201L295.618 82.2748H307.758ZM313.153 98.82H309.486C309.863 97.361 310.051 95.9463 310.051 94.5675V87.1645C310.051 85.305 309.863 83.6776 309.486 82.2748H313.153C312.769 83.6776 312.576 85.305 312.576 87.1645V94.4473C312.576 95.9063 312.769 97.361 313.153 98.82ZM329.125 95.0684L328.997 97.8101C327.097 98.6437 325.378 99.0604 323.847 99.0604C321.422 99.0604 319.446 98.2951 317.923 96.7638C316.396 95.2328 315.634 93.261 315.634 90.8399C315.634 88.2428 316.46 86.1225 318.115 84.4872C319.771 82.8519 321.891 82.0344 324.48 82.0344C325.803 82.0344 327.214 82.2589 328.717 82.7076V85.5454C327.102 84.5513 325.586 84.0544 324.167 84.0544C322.336 84.0544 320.885 84.6998 319.819 85.9862C318.825 87.1767 318.328 88.7117 318.328 90.5834C318.328 92.4152 318.793 93.9223 319.727 95.0965C320.745 96.391 322.147 97.0405 323.931 97.0405C325.554 97.0405 327.286 96.3831 329.125 95.0684V95.0684ZM350.613 95.0684L350.485 97.8101C348.584 98.6437 346.865 99.0604 345.334 99.0604C342.909 99.0604 340.933 98.2951 339.41 96.7638C337.883 95.2328 337.121 93.261 337.121 90.8399C337.121 88.2428 337.947 86.1225 339.603 84.4872C341.258 82.8519 343.378 82.0344 345.967 82.0344C347.29 82.0344 348.701 82.2589 350.204 82.7076V85.5454C348.589 84.5513 347.074 84.0544 345.655 84.0544C343.823 84.0544 342.372 84.6998 341.306 85.9862C340.312 87.1767 339.815 88.7117 339.815 90.5834C339.815 92.4152 340.28 93.9223 341.214 95.0965C342.232 96.391 343.635 97.0405 345.418 97.0405C347.042 97.0405 348.773 96.3831 350.613 95.0684V95.0684ZM362.316 95.5735L360.946 98.82H352.516C352.893 97.5575 353.082 95.9021 353.082 93.8501V86.7759C353.082 84.9481 352.893 83.4492 352.516 82.2748H356.184C355.799 83.6456 355.607 85.1245 355.607 86.7158V97.0164C357.963 96.8522 360.2 96.3712 362.316 95.5735V95.5735ZM367.903 98.82H364.236C364.613 97.361 364.801 95.9463 364.801 94.5675V87.1645C364.801 85.305 364.613 83.6776 364.236 82.2748H367.903C367.519 83.6776 367.326 85.305 367.326 87.1645V94.4473C367.326 95.9063 367.519 97.361 367.903 98.82ZM385.475 98.82H382.192C381.896 98.1307 381.238 97.0886 380.216 95.6977L374.16 87.4452V93.5453C374.16 95.7257 374.353 97.4855 374.737 98.82H371.334C371.711 97.361 371.899 95.6056 371.899 93.5496V84.6315L369.891 82.2748H373.751C374.188 83.0523 374.861 84.0705 375.763 85.3331L382.649 94.8762V87.8341C382.649 85.5774 382.457 83.7258 382.072 82.2748H385.475C385.09 83.9583 384.898 85.83 384.898 87.8902L384.91 94.0947C384.91 95.9383 385.098 97.5136 385.475 98.82V98.82ZM392.349 98.82H388.681C389.058 97.361 389.246 95.9463 389.246 94.5675V87.1645C389.246 85.305 389.058 83.6776 388.681 82.2748H392.349C391.964 83.6776 391.771 85.305 391.771 87.1645V94.4473C391.771 95.9063 391.964 97.361 392.349 98.82ZM408.321 95.0684L408.193 97.8101C406.292 98.6437 404.573 99.0604 403.042 99.0604C400.617 99.0604 398.641 98.2951 397.118 96.7638C395.591 95.2328 394.829 93.261 394.829 90.8399C394.829 88.2428 395.655 86.1225 397.311 84.4872C398.966 82.8519 401.086 82.0344 403.675 82.0344C404.998 82.0344 406.409 82.2589 407.912 82.7076V85.5454C406.297 84.5513 404.782 84.0544 403.363 84.0544C401.531 84.0544 400.08 84.6998 399.014 85.9862C398.02 87.1767 397.523 88.7117 397.523 90.5834C397.523 92.4152 397.988 93.9223 398.922 95.0965C399.94 96.391 401.343 97.0405 403.126 97.0405C404.75 97.0405 406.481 96.3831 408.321 95.0684V95.0684Z" fill="#E40044"/>
<path fill-rule="evenodd" clip-rule="evenodd" d="M64.8445 67.893V67.911C62.7914 67.911 61.1208 66.21 61.1208 64.1234C61.1208 62.7696 61.8199 61.5323 62.8668 60.8255C61.0739 60.5784 59.4306 60.0079 58.0212 59.1635C57.0238 60.6497 56.4106 62.3929 56.4106 64.1234C56.4106 68.59 60.4532 72.2223 64.8445 72.2223V72.2063C66.1684 72.2063 67.248 73.3047 67.248 74.6563C67.248 75.7308 66.5627 76.8998 65.6128 77.3333C66.5404 77.5474 67.3895 78.0465 68.1075 78.8077C68.4025 79.1181 68.6595 79.4716 68.8853 79.8391C70.4592 78.6791 71.4804 76.8346 71.4804 74.6563C71.4804 70.9257 68.5058 67.893 64.8445 67.893V67.893Z" fill="#008BD0"/>
<path fill-rule="evenodd" clip-rule="evenodd" d="M64.4903 55.1066C61.7131 55.1066 57.9321 53.5922 57.9321 50.7631C57.9321 50.7042 57.9321 50.651 57.9361 50.5928C56.7415 50.0543 55.8447 49.01 55.5537 47.7387C55.5728 47.7005 55.5972 47.6675 55.6136 47.6302C56.3818 48.5629 57.6157 49.1756 59.0204 49.1756C60.7664 49.1756 62.2615 48.2377 62.9074 46.898C62.4873 45.2203 60.8038 43.9666 58.7832 43.9666C57.6499 43.9666 56.6286 44.3663 55.8664 45.0061C55.5667 45.2508 55.2048 45.6025 55.0996 45.7725C54.2123 47.2216 53.6948 48.9325 53.6948 50.7631C53.6948 55.9721 58.1081 60.0421 64.4901 60.2078C66.5436 60.2078 68.2113 62.0313 68.2113 64.1234C68.2113 65.7269 67.2261 67.1005 65.8411 67.6499C67.5559 67.8829 69.0822 68.7406 70.1884 69.9881C71.8418 68.5107 72.9222 66.4288 72.9222 64.1234C72.9222 59.6528 68.8783 55.1066 64.4901 55.1066H64.4903ZM59.2307 46.0366C59.7543 46.0366 60.2343 46.1542 60.6314 46.3479C60.6041 46.372 60.5675 46.3898 60.5376 46.4137C60.4205 46.4029 60.2995 46.3918 60.1798 46.3918C59.6904 46.3918 59.2518 46.5046 58.8765 46.6805C58.6106 46.5519 58.3687 46.4003 58.1497 46.2211C58.4748 46.1029 58.8392 46.0366 59.2307 46.0366V46.0366Z" fill="#E40044"/>
<path fill-rule="evenodd" clip-rule="evenodd" d="M64.4903 77.5196V77.5073C63.1646 77.5073 62.0862 76.0062 62.0862 74.6563C62.0862 73.89 62.4405 73.2183 62.9769 72.7682C61.5185 72.4353 60.1751 71.731 59.0616 70.7812C58.2999 71.8778 57.8527 73.2122 57.8527 74.6563C57.8527 78.3841 60.8299 81.1495 64.4903 81.1495C64.4903 81.1495 64.7815 81.1921 64.9105 81.2482C66.2866 81.6176 67.3017 83.1543 67.3017 84.6714C67.3017 86.2763 66.1616 87.5976 64.6679 87.8727C64.6659 87.8724 64.6629 87.8707 64.6629 87.8719L64.6637 87.938C64.6637 87.939 64.6667 87.9379 64.6677 87.9379C67.504 88.0365 69.0898 85.3049 69.1883 82.7456C69.2787 80.5129 67.4246 77.5196 64.4901 77.5196H64.4903Z" fill="#E40044"/>
<path fill-rule="evenodd" clip-rule="evenodd" d="M74.2325 45.7725C74.1292 45.6025 73.7688 45.2508 73.4651 45.0061C72.7062 44.3663 71.6769 43.9666 70.551 43.9666C68.5283 43.9666 66.8422 45.2203 66.4281 46.898C67.0693 48.2377 68.565 49.1756 70.3144 49.1756C71.7191 49.1756 72.9511 48.5629 73.7179 47.6302C73.737 47.6675 73.7594 47.7005 73.7777 47.7387C73.4868 49.01 72.5933 50.0543 71.3989 50.5928C71.3989 50.651 71.4019 50.7042 71.4019 50.7631C71.4019 53.1563 68.7006 54.6034 66.1879 54.9958C68.0983 55.4551 69.9205 56.6751 71.2768 58.382C73.9957 56.6779 75.637 53.9335 75.637 50.7631C75.637 48.9325 75.1243 47.2216 74.2329 45.7725H74.2325ZM70.4558 46.6805C70.0818 46.5046 69.6406 46.3918 69.1518 46.3918C69.0334 46.3918 68.9103 46.4029 68.7942 46.4137C68.7662 46.3898 68.7323 46.372 68.7036 46.3479C69.1015 46.1542 69.5808 46.0366 70.1009 46.0366C70.4897 46.0366 70.8569 46.1029 71.182 46.2211C70.963 46.4003 70.7223 46.5519 70.4558 46.6805Z" fill="#008BD0"/>
<path fill-rule="evenodd" clip-rule="evenodd" d="M94.8897 29.1929C94.8897 28.8788 94.8578 28.571 94.8014 28.2723L74.0912 29.2864C72.9511 29.3003 71.7346 29.7724 70.5659 30.5187C70.8596 32.4337 69.7976 34.7184 67.7165 36.2253C67.2155 36.5921 66.6879 36.8812 66.1554 37.099C66.1524 37.5338 66.1174 40.2363 66.1113 40.9221C68.0421 40.8409 69.814 40.13 71.2274 38.9721L73.9396 42.8079C74.9165 44.1869 76.8013 44.502 78.1576 43.506C78.3208 43.3904 78.4609 43.2577 78.5927 43.116L76.3804 40.2877L80.1661 42.2577C81.6557 43.0276 83.4743 42.4274 84.2317 40.9122C84.3234 40.7354 84.3915 40.5509 84.4452 40.3628L79.6744 38.1715L86.3421 39.2523C88.3627 39.5756 90.2596 38.1746 90.5826 36.1158C90.6208 35.8708 90.6329 35.6332 90.6235 35.3953L78.3514 34.0174H90.1469C92.7651 34.0174 94.8897 31.858 94.8897 29.1929V29.1929Z" fill="#E40044"/>
<path fill-rule="evenodd" clip-rule="evenodd" d="M63.1136 37.0959C62.5799 36.8784 62.0565 36.5887 61.5561 36.2253C59.4803 34.7184 58.4143 32.4337 58.7114 30.5187C57.5427 29.7724 56.327 29.3003 55.1827 29.2864L34.4731 28.2723C34.4195 28.571 34.3848 28.8788 34.3848 29.1929C34.3848 31.858 36.5101 34.0174 39.1291 34.0174H50.9272L38.6518 35.3953C38.6417 35.6332 38.6538 35.8708 38.692 36.1158C39.0148 38.1746 40.9151 39.5756 42.9337 39.2523L49.6008 38.1715L44.8321 40.3628C44.883 40.5509 44.9517 40.7354 45.0428 40.9122C45.8015 42.4274 47.6195 43.0276 49.1086 42.2577L52.8941 40.2877L50.6852 43.116C50.8137 43.2577 50.9584 43.3904 51.1176 43.506C52.4726 44.502 54.3614 44.1869 55.3377 42.8079L58.045 38.9721C59.4585 40.1279 61.2297 40.837 63.1605 40.9221C63.1503 40.2421 63.1191 37.5338 63.1136 37.0959V37.0959Z" fill="#E40044"/>
<path fill-rule="evenodd" clip-rule="evenodd" d="M65.4152 60.9489L64.7883 60.9569C64.3878 60.9569 64.0117 61.0436 63.6622 61.1922C63.7099 63.2576 63.7628 65.3243 63.8167 67.391C64.0389 67.3679 64.2647 67.3551 64.4903 67.3551H64.8284C65.0852 67.3272 65.3273 67.2574 65.5619 67.1722C65.6177 65.1076 65.6694 63.0419 65.7197 60.9794C65.6843 60.9624 65.6563 60.943 65.6217 60.9312C65.5531 60.9342 65.4871 60.9461 65.4152 60.9491V60.9489Z" fill="#008BD0"/>
<path fill-rule="evenodd" clip-rule="evenodd" d="M65.0166 77.0069C65.1043 77.0176 65.1894 77.0345 65.2743 77.0485C65.3186 75.7149 65.356 74.3812 65.3953 73.0467C65.311 73.0215 65.2329 73.0014 65.1459 72.9885H64.8848C64.5782 72.9885 64.277 72.9602 63.9771 72.927C64.0172 74.2538 64.0553 75.5802 64.0954 76.9077C64.2239 76.9438 64.3551 76.9679 64.4903 76.9679L65.0166 77.0069Z" fill="#008BD0"/>
<path fill-rule="evenodd" clip-rule="evenodd" d="M65.1104 81.9005C65.0453 81.9035 64.9895 81.9105 64.9262 81.9128C64.8222 81.9291 64.7066 81.9538 64.6699 81.9692L64.638 81.9851L64.5972 81.9941C64.4903 82.0217 64.381 82.0696 64.2742 82.1199C64.3367 83.8672 64.4001 85.6193 64.4646 87.3665C64.6183 87.3476 64.7719 87.3135 64.916 87.2656C64.9861 85.4778 65.0453 83.6904 65.1104 81.9006V81.9005Z" fill="#008BD0"/>
<path fill-rule="evenodd" clip-rule="evenodd" d="M64.5149 88.7042C64.5707 90.1898 64.6285 91.6766 64.6889 93.165C64.7481 91.6838 64.8038 90.2024 64.8596 88.7191C64.7447 88.7191 64.6319 88.7101 64.5149 88.7042V88.7042Z" fill="#008BD0"/>
<path fill-rule="evenodd" clip-rule="evenodd" d="M64.2239 34.4882C63.8642 34.4882 63.5181 34.426 63.2 34.3124C63.2611 41.0304 63.3523 47.7597 63.4882 54.5059C63.8261 54.5471 64.1546 54.5672 64.4646 54.5672C64.9262 54.5672 65.3838 54.6246 65.8318 54.7157C65.9727 47.7407 66.0739 40.7786 66.133 33.8299C65.6041 34.2448 64.9419 34.4882 64.2239 34.4882Z" fill="#008BD0"/>
<path fill-rule="evenodd" clip-rule="evenodd" d="M64.6658 27.8844C62.9131 27.8844 61.4901 29.3315 61.4901 31.12C61.4901 32.9074 62.9131 34.3535 64.6658 34.3535C66.4213 34.3535 67.8409 32.9074 67.8409 31.12C67.8409 29.3315 66.4213 27.8844 64.6658 27.8844Z" fill="#008BD0"/>
<path fill-rule="evenodd" clip-rule="evenodd" d="M64.6679 87.8727C64.6659 87.8724 64.6649 87.872 64.6629 87.8719C63.1681 87.595 62.0323 86.2745 62.0323 84.6714C62.0323 83.5839 62.5593 82.4913 63.3609 81.8202C62.3186 81.6558 61.3587 81.2804 60.5285 80.7348C60.2552 81.4106 60.1178 82.1065 60.1429 82.7456C60.243 85.3082 61.8269 88.0325 64.6637 87.938C64.6647 87.938 64.6667 87.9379 64.6677 87.9379L64.6679 87.8727Z" fill="#008BD0"/>
<path fill-rule="evenodd" clip-rule="evenodd" d="M82.3937 0.330125C54.058 -2.77298 19.9077 16.344 5.94332 43.1978C-8.08738 70.1792 3.57272 94.7509 31.9873 98.0796C36.3127 98.586 40.7776 98.5693 45.2875 98.0846C45.154 98.0698 45.0197 98.0581 44.8866 98.0425C16.4724 94.7136 4.81232 70.1419 18.8432 43.1609C30.7374 20.2879 57.2763 3.02752 82.3937 0.329825V0.330125Z" fill="#008BD0"/>
<path fill-rule="evenodd" clip-rule="evenodd" d="M36.4248 106.623C64.7605 109.726 98.9109 90.6091 112.875 63.7553C126.906 36.7739 115.246 12.2022 86.8312 8.87353C82.5058 8.36703 78.0409 8.38383 73.531 8.86853C73.6646 8.88333 73.7988 8.89503 73.9319 8.91063C102.346 12.2395 114.006 36.8112 99.9754 63.7922C88.0812 86.6652 61.5422 103.926 36.4248 106.623V106.623Z" fill="#E40044"/>
<path fill-rule="evenodd" clip-rule="evenodd" d="M11.1439 62.7469L11.1748 64.2745C10.6241 64.1288 10.1683 64.0596 9.80603 64.067L8.08453 64.1016L8.14433 67.0669L9.02423 67.049C9.79073 67.0337 10.5237 66.9388 11.225 66.7645L11.2559 68.2918C10.7117 68.1458 10.0373 68.0811 9.23403 68.0973L6.51753 68.1523C5.69433 68.1687 4.97633 68.2614 4.36353 68.4309L4.33263 66.9033C4.96363 67.0507 5.52623 67.1196 6.01723 67.1097L7.29283 67.0842L7.23303 64.1189L6.33443 64.137C5.64333 64.1509 4.96053 64.2433 4.28243 64.4137L4.25153 62.8861C4.84563 63.0343 5.51013 63.1012 6.24343 63.0862L8.80453 63.0346C9.73803 63.0159 10.5178 62.9198 11.1439 62.7469V62.7469ZM10.6538 57.0014L11.8999 57.7778L11.3245 61.39C10.8404 61.1502 10.0957 60.9506 9.09003 60.7902L6.71173 60.4114C5.96283 60.2921 5.23123 60.257 4.51653 60.3057L5.11383 56.5552L6.11873 57.2528C5.81113 57.6774 5.61613 58.1471 5.53423 58.6616C5.52403 58.726 5.50333 58.8884 5.47183 59.1489L7.67863 59.5004L8.03463 57.2639L9.02253 58.0706C8.75263 58.4589 8.55223 58.9746 8.42073 59.6186L10.7859 59.995C10.8579 59.171 10.8931 58.6645 10.8908 58.4762C10.8919 57.9691 10.8129 57.4782 10.6538 57.0014ZM13.7813 50.2464L13.3456 51.8568C12.9831 51.797 12.6078 51.7833 12.2217 51.8225C12.089 51.8335 11.7083 51.8913 11.0768 51.994L10.4299 54.3844C10.9002 54.7246 11.2072 54.9392 11.3492 55.0276C11.7046 55.2552 12.0397 55.4171 12.3563 55.5129L11.9127 57.1527C11.6241 56.7233 11.0025 56.0982 10.0509 55.2805L6.09573 51.8729L11.3962 50.9089C12.2937 50.7507 13.0888 50.5296 13.7813 50.2464V50.2464ZM10.1538 52.1439L7.95193 52.4305L9.70373 53.8076L10.1538 52.1439ZM14.3122 45.3391L15.3741 46.3533L14.1268 49.6361C13.6909 49.3027 13.0738 48.9844 12.2747 48.6808L9.51913 47.6343C8.80743 47.3639 8.19543 47.2153 7.68233 47.1881L8.22483 45.7597C8.70193 46.1124 9.24963 46.4063 9.86953 46.6416L13.8816 48.1658C14.1662 47.2235 14.3097 46.281 14.3122 45.3391V45.3391ZM11.9745 37.6266L12.8144 38.416C12.5233 38.6635 12.3042 38.8888 12.1525 39.0952C12.0335 39.2579 11.8776 39.5331 11.6842 39.9184L15.132 41.6149C16.0295 42.0568 16.7537 42.3256 17.2994 42.4191L16.6247 43.7902C16.2653 43.4345 15.6011 43.0186 14.6314 42.5416L11.2196 40.8623C11.0269 41.3258 10.8917 41.6725 10.8134 41.9038C10.6864 42.2898 10.6037 42.6513 10.5654 42.986L9.74113 42.1651L11.9745 37.6266ZM21.4901 35.3699L20.6681 36.6577C20.2908 36.2311 19.9501 35.9204 19.6448 35.7254L18.1934 34.799L16.5975 37.2989L17.3394 37.7723C17.9856 38.185 18.6481 38.5127 19.3281 38.7567L18.5061 40.0445C18.1345 39.621 17.6092 39.193 16.9323 38.7607L14.6422 37.2989C13.948 36.8558 13.2991 36.5344 12.6954 36.3351L13.5174 35.0473C13.9605 35.5201 14.3905 35.8898 14.8043 36.154L15.8795 36.8405L17.4754 34.3406L16.718 33.857C16.1355 33.4851 15.5161 33.183 14.8573 32.9483L15.6794 31.6605C16.0915 32.1135 16.6072 32.5378 17.2254 32.9324L19.3845 34.3109C20.1714 34.8132 20.8733 35.1661 21.4901 35.3699V35.3699Z" fill="white"/>
<path fill-rule="evenodd" clip-rule="evenodd" d="M110.885 57.8404L111.885 58.394C111.846 59.2577 111.685 59.9769 111.402 60.5489C110.955 61.4552 110.304 62.0519 109.452 62.3387C108.598 62.6267 107.72 62.5473 106.816 62.1009C105.846 61.6218 105.206 60.9222 104.9 60.0021C104.595 59.082 104.68 58.1389 105.158 57.1714C105.402 56.6774 105.746 56.1918 106.191 55.713L107.251 56.2366C106.582 56.6564 106.117 57.1309 105.855 57.6613C105.517 58.3453 105.491 59.0066 105.775 59.6421C106.036 60.2331 106.518 60.702 107.217 61.0473C107.902 61.3851 108.55 61.4897 109.162 61.3574C109.833 61.2156 110.334 60.8111 110.663 60.145C110.963 59.5387 111.037 58.7702 110.885 57.8404V57.8404ZM114.665 51.6371L114.151 53.2239C113.792 53.146 113.417 53.1142 113.03 53.1341C112.897 53.1381 112.514 53.1774 111.878 53.2486L111.114 55.6045C111.567 55.9673 111.863 56.1969 112 56.2921C112.344 56.537 112.671 56.7151 112.982 56.8267L112.458 58.4425C112.191 57.9992 111.601 57.3444 110.691 56.4806L106.909 52.8818L112.25 52.1808C113.155 52.0671 113.96 51.8857 114.665 51.6371V51.6371ZM110.948 53.3529L108.735 53.5306L110.417 54.9922L110.948 53.3529ZM115.892 45.8212L115.634 47.0365C114.738 47.6845 113.532 48.3299 112.016 48.9722L112.955 49.1718C113.72 49.3342 114.446 49.4065 115.134 49.3889L114.816 50.8836C114.361 50.6262 113.709 50.4074 112.863 50.2277L110.024 49.6242C109.452 49.5029 108.802 49.445 108.073 49.4507L108.231 48.7089C108.431 47.7647 108.676 47.0807 108.963 46.6549C109.413 45.9907 110.042 45.7458 110.85 45.9176C111.625 46.0823 112.108 46.6422 112.298 47.5977C113.456 47.1765 114.654 46.5843 115.892 45.8212V45.8212ZM110.673 47.0271C109.861 46.8547 109.302 47.2893 108.997 48.3305L111.722 48.9096C111.771 48.447 111.723 48.0561 111.577 47.7366C111.402 47.3548 111.101 47.1181 110.673 47.0271ZM114.661 41.0154L115.99 41.6396L115.845 45.2943C115.336 45.1134 114.573 45.0029 113.555 44.9623L111.149 44.8665C110.391 44.8362 109.66 44.8875 108.956 45.0202L109.107 41.2254L110.188 41.7997C109.932 42.2578 109.794 42.7471 109.773 43.2675C109.77 43.3327 109.769 43.4963 109.768 43.7587L112.001 43.8478L112.091 41.5849L113.167 42.2694C112.945 42.687 112.806 43.2227 112.752 43.8775L115.145 43.9728C115.12 43.1459 115.095 42.6385 115.07 42.452C115.012 41.9485 114.875 41.4701 114.661 41.0154H114.661Z" fill="white"/>
</svg>
